<svg width="400" height="300" viewBox="0 0 400 300" xmlns="http://www.w3.org/2000/svg">
  <!-- Skip Container 4 - Standard rectangular design -->
  <defs>
    <linearGradient id="skipGradient4" x1="0%" y1="0%" x2="100%" y2="100%">
      <stop offset="0%" style="stop-color:#E53E3E;stop-opacity:1" />
      <stop offset="50%" style="stop-color:#FC8181;stop-opacity:1" />
      <stop offset="100%" style="stop-color:#C53030;stop-opacity:1" />
    </linearGradient>
    <linearGradient id="sideGradient4" x1="0%" y1="0%" x2="100%" y2="100%">
      <stop offset="0%" style="stop-color:#C53030;stop-opacity:1" />
      <stop offset="100%" style="stop-color:#9C2A2A;stop-opacity:1" />
    </linearGradient>
  </defs>
  
  <!-- Ground line -->
  <line x1="120" y1="250" x2="280" y2="250" stroke="#8B4513" stroke-width="2"/>
  
  <!-- Main container body -->
  <rect x="120" y="140" width="160" height="110" fill="url(#skipGradient4)" stroke="#9C2A2A" stroke-width="2"/>
  
  <!-- Left side panel -->
  <polygon points="120,140 105,125 105,235 120,250" fill="url(#sideGradient4)" stroke="#9C2A2A" stroke-width="1"/>
  
  <!-- Top edge -->
  <polygon points="120,140 280,140 295,125 105,125" fill="url(#skipGradient4)" stroke="#9C2A2A" stroke-width="1"/>
  
  <!-- Right side panel -->
  <polygon points="280,140 295,125 295,235 280,250" fill="url(#sideGradient4)" stroke="#9C2A2A" stroke-width="1"/>
  
  <!-- Internal compartments -->
  <rect x="135" y="155" width="40" height="25" fill="#B91C1C" opacity="0.6"/>
  <rect x="185" y="155" width="40" height="25" fill="#B91C1C" opacity="0.6"/>
  <rect x="235" y="155" width="40" height="25" fill="#B91C1C" opacity="0.6"/>
  
  <!-- Internal support bars -->
  <rect x="130" y="200" width="140" height="10" fill="#9C2A2A" opacity="0.8"/>
  <rect x="130" y="220" width="140" height="8" fill="#9C2A2A" opacity="0.6"/>
</svg> 