<svg width="400" height="300" viewBox="0 0 400 300" xmlns="http://www.w3.org/2000/svg" style="background: transparent;">
  <!-- Skip Container 6 - Large industrial container -->
  <defs>
    <linearGradient id="skipGradient6" x1="0%" y1="0%" x2="100%" y2="100%">
      <stop offset="0%" style="stop-color:#E53E3E;stop-opacity:1" />
      <stop offset="50%" style="stop-color:#FC8181;stop-opacity:1" />
      <stop offset="100%" style="stop-color:#C53030;stop-opacity:1" />
    </linearGradient>
    <linearGradient id="sideGradient6" x1="0%" y1="0%" x2="100%" y2="100%">
      <stop offset="0%" style="stop-color:#C53030;stop-opacity:1" />
      <stop offset="100%" style="stop-color:#9C2A2A;stop-opacity:1" />
    </linearGradient>
  </defs>
  
  <!-- Transparent background rect -->
  <rect width="100%" height="100%" fill="none" opacity="0"/>
  
  <!-- Ground line -->
  <line x1="100" y1="250" x2="300" y2="250" stroke="#8B4513" stroke-width="2"/>
  
  <!-- Main large container -->
  <rect x="100" y="130" width="200" height="120" fill="url(#skipGradient6)" stroke="#9C2A2A" stroke-width="2"/>
  
  <!-- Left side panel -->
  <polygon points="100,130 80,115 80,235 100,250" fill="url(#sideGradient6)" stroke="#9C2A2A" stroke-width="1"/>
  
  <!-- Right side panel -->
  <polygon points="300,130 320,115 320,235 300,250" fill="url(#sideGradient6)" stroke="#9C2A2A" stroke-width="1"/>
  
  <!-- Top edge -->
  <polygon points="100,130 300,130 320,115 80,115" fill="url(#skipGradient6)" stroke="#9C2A2A" stroke-width="1"/>
  
  <!-- Internal compartments - 3 sections -->
  <rect x="115" y="145" width="50" height="30" fill="#B91C1C" opacity="0.6"/>
  <rect x="175" y="145" width="50" height="30" fill="#B91C1C" opacity="0.6"/>
  <rect x="235" y="145" width="50" height="30" fill="#B91C1C" opacity="0.6"/>
  
  <!-- Multiple support bars-->
  <rect x="110" y="195" width="180" height="12" fill="#9C2A2A" opacity="0.8"/>
  <rect x="110" y="215" width="180" height="10" fill="#9C2A2A" opacity="0.7"/>
  <rect x="110" y="230" width="180" height="8" fill="#9C2A2A" opacity="0.6"/>
</svg> 