<svg width="400" height="300" viewBox="0 0 400 300" xmlns="http://www.w3.org/2000/svg">
  <!-- Skip Container 3 - Open-top wide design -->
  <defs>
    <linearGradient id="skipGradient3" x1="0%" y1="0%" x2="100%" y2="100%">
      <stop offset="0%" style="stop-color:#E53E3E;stop-opacity:1" />
      <stop offset="50%" style="stop-color:#FC8181;stop-opacity:1" />
      <stop offset="100%" style="stop-color:#C53030;stop-opacity:1" />
    </linearGradient>
    <linearGradient id="sideGradient3" x1="0%" y1="0%" x2="100%" y2="100%">
      <stop offset="0%" style="stop-color:#C53030;stop-opacity:1" />
      <stop offset="100%" style="stop-color:#9C2A2A;stop-opacity:1" />
    </linearGradient>
  </defs>
  
  <!-- Ground line -->
  <line x1="90" y1="250" x2="310" y2="250" stroke="#8B4513" stroke-width="2"/>
  
  <!-- Main wide container with angled sides -->
  <polygon points="120,140 280,140 310,180 310,250 90,250 90,180" fill="url(#skipGradient3)" stroke="#9C2A2A" stroke-width="2"/>
  
  <!-- Left angled wing -->
  <polygon points="120,140 90,180 75,165 100,125" fill="url(#sideGradient3)" stroke="#9C2A2A" stroke-width="1"/>
  
  <!-- Right angled wing -->
  <polygon points="280,140 310,180 325,165 300,125" fill="url(#sideGradient3)" stroke="#9C2A2A" stroke-width="1"/>
  
  <!-- Top edge left -->
  <polygon points="120,140 100,125 300,125 280,140" fill="url(#skipGradient3)" stroke="#9C2A2A" stroke-width="1"/>
  
  <!-- Internal support structure -->
  <rect x="110" y="190" width="180" height="12" fill="#9C2A2A" opacity="0.8"/>
  
  <!-- Internal compartments -->
  <rect x="130" y="155" width="45" height="20" fill="#B91C1C" opacity="0.6"/>
  <rect x="185" y="155" width="45" height="20" fill="#B91C1C" opacity="0.6"/>
  <rect x="240" y="155" width="45" height="20" fill="#B91C1C" opacity="0.6"/>
</svg> 